<svg width="27" height="26" viewBox="0 0 27 26" fill="none" xmlns="http://www.w3.org/2000/svg">
<path d="M14.7429 12.076C15.9939 11.0253 17.2587 11.1392 18.5374 12.418L20.7557 14.6363C21.4118 15.2923 21.99 15.6148 22.4903 15.6036C23.0018 15.5925 23.5967 15.2478 24.275 14.5696L24.6419 14.2026L26.4099 15.9706L25.5426 16.8379C24.275 18.1055 23.1047 18.7754 22.0317 18.8477C20.9642 18.9144 19.8689 18.3863 18.7459 17.2632L16.8695 15.3868C16.219 14.7363 15.6658 14.3889 15.21 14.3444C14.7596 14.2943 14.2704 14.5334 13.7422 15.0616L11.4989 12.8183C12.0271 12.2901 12.255 11.7045 12.205 11.2541C12.1549 10.7927 11.813 10.3303 11.157 9.67428L9.56413 8.08143C8.46887 6.98618 7.96017 5.91039 8.038 4.85405C8.11584 3.79772 8.79133 2.63297 10.0645 1.35981L10.9318 0.492504L12.6998 2.26047L12.3328 2.62741C11.649 3.31125 11.3043 3.90613 11.2987 4.41206C11.2876 4.91243 11.6101 5.49063 12.2661 6.14667L14.2843 8.16483C14.8958 8.77639 15.2183 9.37683 15.2517 9.96616C15.285 10.5555 15.032 11.1754 14.4928 11.8259L14.7429 12.076Z" fill="#CA0088"/>
<path d="M14.4159 13.9784C15.4666 15.2293 15.3527 16.4941 14.0739 17.7728L11.8556 19.9911C11.1996 20.6472 10.8771 21.2254 10.8883 21.7258C10.8994 22.2372 11.2441 22.8321 11.9223 23.5104L12.2893 23.8773L10.5213 25.6453L9.65401 24.778C8.38641 23.5104 7.71647 22.3401 7.64419 21.2671C7.57747 20.1996 8.10564 19.1044 9.22869 17.9813L11.1051 16.1049C11.7556 15.4545 12.103 14.9013 12.1475 14.4454C12.1975 13.9951 11.9585 13.5058 11.4303 12.9776L13.6736 10.7343C14.2018 11.2625 14.6911 11.5015 15.1414 11.4515C15.6028 11.4015 16.1616 11.0484 16.8176 10.3924L18.4105 8.79955C19.5057 7.7043 20.5815 7.19559 21.6378 7.27343C22.6942 7.35126 23.8589 8.02676 25.1321 9.29992L25.9994 10.1672L24.2314 11.9352L23.8645 11.5683C23.1806 10.8844 22.5858 10.5397 22.0798 10.5342C21.5795 10.523 21.0013 10.8455 20.3452 11.5015L18.3271 13.5197C17.7155 14.1313 17.1151 14.4537 16.5257 14.4871C15.9364 14.5204 15.3165 14.2675 14.666 13.7282L14.4159 13.9784Z" fill="#CA0088"/>
<path d="M12.7739 13.9117C11.523 14.9624 10.2582 14.8485 8.97944 13.5697L6.76113 11.3514C6.1051 10.6954 5.52689 10.3729 5.02652 10.3841C4.51503 10.3952 3.92015 10.7399 3.24187 11.4182L2.87494 11.7851L1.10696 10.0171L1.97427 9.14981C3.24187 7.88221 4.41218 7.21227 5.48519 7.14C6.55265 7.07328 7.6479 7.60145 8.77095 8.7245L10.6473 10.6009C11.2978 11.2514 11.851 11.5988 12.3069 11.6433C12.7572 11.6934 13.2465 11.4543 13.7746 10.9261L16.018 13.1694C15.4898 13.6976 15.2507 14.1869 15.3008 14.6372C15.3508 15.0986 15.7038 15.6574 16.3599 16.3134L17.9527 17.9063C19.048 19.0015 19.5567 20.0773 19.4788 21.1336C19.401 22.19 18.7255 23.3547 17.4524 24.6279L16.585 25.4952L14.8171 23.7272L15.184 23.3603C15.8679 22.6765 16.2125 22.0816 16.2181 21.5756C16.2292 21.0753 15.9068 20.4971 15.2507 19.841L13.2326 17.8229C12.621 17.2113 12.2986 16.6109 12.2652 16.0215C12.2318 15.4322 12.4848 14.8123 13.0241 14.1618L12.7739 13.9117Z" fill="#CA0088"/>
<path d="M12.5802 12.0093C12.0159 10.5332 11.6434 9.49359 12.9222 8.21487L15.1405 5.99656C15.7965 5.34053 16.119 4.76232 16.1078 4.26195C16.0967 3.75046 15.752 3.15558 15.0737 2.4773L14.7068 2.11037L16.4748 0.342395L17.3421 1.2097C18.6097 2.4773 19.2796 3.64761 19.3519 4.72062C19.4186 5.78808 18.8905 6.88333 17.7674 8.00638L15.891 9.88276C15.2405 10.5332 14.8931 11.0864 14.8486 11.5423C14.7985 11.9927 15.0376 12.4819 15.5658 13.0101L13.3225 15.2534C12.7943 14.7252 12.305 14.4862 11.8547 14.5362C11.3933 14.5862 10.8345 14.9393 10.1785 15.5953L8.58563 17.1882C7.49038 18.2834 6.41458 18.7921 5.35825 18.7143C4.30191 18.6364 3.13717 17.9609 1.864 16.6878L0.996698 15.8205L2.76467 14.0525L3.13161 14.4194C3.81544 15.1033 4.41033 15.448 4.91626 15.4535C5.41662 15.4647 5.99483 15.1422 6.65087 14.4862L8.66902 12.468C9.28059 11.8564 9.88103 11.534 10.4704 11.5006C11.0597 11.4673 11.6796 11.7202 12.3301 12.2595L12.5802 12.0093Z" fill="#CA0088"/>
</svg>
