<svg width="40" height="171" viewBox="0 0 40 171" fill="none" xmlns="http://www.w3.org/2000/svg">
<path fill-rule="evenodd" clip-rule="evenodd" d="M13.1393 13.7062V14.4124H10.6321H8.125V15.1036V15.7947H12.1234H16.1217L16.0286 16.0426C15.7125 16.8843 15.1688 17.871 14.6013 18.6325C14.3114 19.0217 13.8899 19.521 13.8515 19.521C13.8202 19.521 13.3461 18.959 13.1036 18.6345C12.8603 18.3088 12.5927 17.8965 12.3675 17.5001L12.201 17.2072L11.4866 17.2071L10.7721 17.2071L10.8804 17.44C11.2587 18.2539 11.9594 19.3107 12.6485 20.1068L12.9026 20.4003L12.5521 20.7345C12.3593 20.9182 11.5388 21.7092 10.7288 22.4922L9.25599 23.9157L9.75926 24.408L10.2625 24.9003L12.0547 23.1499L13.8468 21.3994L14.9622 22.4887L16.0776 23.578L16.3504 22.8667L16.6232 22.1554L15.7165 21.2739L14.8098 20.3924L15.0405 20.1295C16.0489 18.9801 16.9116 17.4967 17.3691 16.1253C17.4159 15.9848 17.468 15.853 17.4847 15.8323C17.508 15.8036 17.7572 15.7947 18.5419 15.7947H19.5687V15.1037V14.4127L17.0692 14.4051L14.5698 14.3974L14.5615 13.6987L14.5532 13H13.8463H13.1393V13.7062ZM19.1964 18.6715C19.1784 18.7173 18.4599 20.5871 17.5998 22.8266C16.7397 25.0661 16.0263 26.9224 16.0146 26.9516C15.9944 27.0017 16.0351 27.0043 16.7119 26.9967L17.4307 26.9886L17.8306 25.9449L18.2305 24.9011H19.9378H21.6451L22.0451 25.9449L22.445 26.9886L23.1602 26.9967C23.5536 27.0011 23.8752 27.0011 23.875 26.9967C23.8748 26.9922 23.1502 25.1022 22.2648 22.7965L20.6549 18.6045L19.9421 18.5964L19.2292 18.5883L19.1964 18.6715ZM20.5171 21.9777C20.8246 22.7834 21.0762 23.4528 21.0762 23.4652C21.0761 23.4776 20.5638 23.4877 19.9378 23.4877C19.3118 23.4877 18.7995 23.4776 18.7995 23.4652C18.7992 23.4167 19.9189 20.5127 19.9378 20.5127C19.9489 20.5127 20.2096 21.1719 20.5171 21.9777Z" fill="#F4F4F4"/>
<path d="M28.875 23L26.2769 18.5L31.4731 18.5L28.875 23Z" fill="#F4F4F4"/>
<rect x="0.5" y="0.5" width="39" height="39" rx="9.5" stroke="#F4F4F4" stroke-opacity="0.15"/>
</svg>
