<svg width="173" height="34" viewBox="0 0 173 34" fill="none" xmlns="http://www.w3.org/2000/svg">
<path d="M49.4961 15.095C50.5069 15.4151 51.2986 15.9542 51.8714 16.7122C52.4442 17.4535 52.7306 18.3716 52.7306 19.4666C52.7306 21.0165 52.1241 22.2126 50.9112 23.0549C49.7151 23.8803 47.9631 24.2931 45.6551 24.2931H36.5076V6.60449H45.1498C47.3061 6.60449 48.957 7.01723 50.1026 7.84269C51.265 8.66816 51.8461 9.78844 51.8461 11.2035C51.8461 12.0627 51.6356 12.8292 51.2144 13.503C50.8101 14.1769 50.2373 14.7075 49.4961 15.095ZM40.576 9.68736V13.8568H44.6444C45.6551 13.8568 46.4217 13.6799 46.9439 13.3262C47.4661 12.9724 47.7272 12.4501 47.7272 11.7594C47.7272 11.0688 47.4661 10.5549 46.9439 10.218C46.4217 9.86424 45.6551 9.68736 44.6444 9.68736H40.576ZM45.3519 21.2102C46.4301 21.2102 47.2387 21.0333 47.7778 20.6795C48.3337 20.3258 48.6117 19.7783 48.6117 19.037C48.6117 17.5714 47.5251 16.8386 45.3519 16.8386H40.576V21.2102H45.3519Z" fill="#F4F4F4"/>
<path d="M62.0208 24.4952C60.5889 24.4952 59.3002 24.2004 58.1546 23.6108C57.0259 23.0043 56.1415 22.1704 55.5013 21.1091C54.8612 20.0478 54.5411 18.8433 54.5411 17.4956C54.5411 16.1479 54.8612 14.9434 55.5013 13.8821C56.1415 12.8208 57.0259 11.9953 58.1546 11.4057C59.3002 10.7992 60.5889 10.496 62.0208 10.496C63.4528 10.496 64.7331 10.7992 65.8618 11.4057C66.9905 11.9953 67.8749 12.8208 68.5151 13.8821C69.1552 14.9434 69.4753 16.1479 69.4753 17.4956C69.4753 18.8433 69.1552 20.0478 68.5151 21.1091C67.8749 22.1704 66.9905 23.0043 65.8618 23.6108C64.7331 24.2004 63.4528 24.4952 62.0208 24.4952ZM62.0208 21.2607C63.0316 21.2607 63.8571 20.9238 64.4972 20.25C65.1542 19.5593 65.4827 18.6411 65.4827 17.4956C65.4827 16.3501 65.1542 15.4404 64.4972 14.7665C63.8571 14.0758 63.0316 13.7305 62.0208 13.7305C61.0101 13.7305 60.1762 14.0758 59.5192 14.7665C58.8622 15.4404 58.5337 16.3501 58.5337 17.4956C58.5337 18.6411 58.8622 19.5593 59.5192 20.25C60.1762 20.9238 61.0101 21.2607 62.0208 21.2607Z" fill="#F4F4F4"/>
<path d="M78.5792 24.4952C77.1473 24.4952 75.8585 24.2004 74.713 23.6108C73.5843 23.0043 72.6998 22.1704 72.0597 21.1091C71.4195 20.0478 71.0994 18.8433 71.0994 17.4956C71.0994 16.1479 71.4195 14.9434 72.0597 13.8821C72.6998 12.8208 73.5843 11.9953 74.713 11.4057C75.8585 10.7992 77.1473 10.496 78.5792 10.496C80.0111 10.496 81.2914 10.7992 82.4201 11.4057C83.5488 11.9953 84.4333 12.8208 85.0734 13.8821C85.7136 14.9434 86.0336 16.1479 86.0336 17.4956C86.0336 18.8433 85.7136 20.0478 85.0734 21.1091C84.4333 22.1704 83.5488 23.0043 82.4201 23.6108C81.2914 24.2004 80.0111 24.4952 78.5792 24.4952ZM78.5792 21.2607C79.59 21.2607 80.4154 20.9238 81.0556 20.25C81.7126 19.5593 82.0411 18.6411 82.0411 17.4956C82.0411 16.3501 81.7126 15.4404 81.0556 14.7665C80.4154 14.0758 79.59 13.7305 78.5792 13.7305C77.5684 13.7305 76.7345 14.0758 76.0775 14.7665C75.4205 15.4404 75.092 16.3501 75.092 17.4956C75.092 18.6411 75.4205 19.5593 76.0775 20.25C76.7345 20.9238 77.5684 21.2607 78.5792 21.2607Z" fill="#F4F4F4"/>
<path d="M96.8559 23.6361C96.4684 23.9224 95.9883 24.1415 95.4155 24.2931C94.8596 24.4278 94.2784 24.4952 93.6719 24.4952C92.0378 24.4952 90.7828 24.0825 89.9068 23.257C89.0308 22.4316 88.5928 21.2186 88.5928 19.6182V11.0014H92.5348H95.8956V14.0337H92.5348V19.5677C92.5348 20.1405 92.678 20.5869 92.9644 20.907C93.2508 21.2102 93.6635 21.3618 94.2026 21.3618C94.809 21.3618 95.3481 21.1934 95.8198 20.8564L96.8559 23.6361Z" fill="#F4F4F4"/>
<path d="M105.233 24.4952C103.784 24.4952 102.479 24.2004 101.316 23.6108C100.171 23.0043 99.2693 22.1704 98.6123 21.1091C97.9721 20.0478 97.652 18.8433 97.652 17.4956C97.652 16.1479 97.9721 14.9434 98.6123 13.8821C99.2693 12.8208 100.171 11.9953 101.316 11.4057C102.479 10.7992 103.784 10.496 105.233 10.496C106.665 10.496 107.911 10.7992 108.973 11.4057C110.051 11.9953 110.834 12.846 111.323 13.9579L108.265 15.6004C107.558 14.3538 106.538 13.7305 105.208 13.7305C104.18 13.7305 103.329 14.0674 102.655 14.7412C101.982 15.4151 101.645 16.3332 101.645 17.4956C101.645 18.658 101.982 19.5761 102.655 20.25C103.329 20.9238 104.18 21.2607 105.208 21.2607C106.555 21.2607 107.574 20.6374 108.265 19.3908L111.323 21.0586C110.834 22.1367 110.051 22.9791 108.973 23.5855C107.911 24.192 106.665 24.4952 105.233 24.4952Z" fill="#F4F4F4"/>
<path d="M127.217 10.6981V24.2931H123.452V22.7264C122.475 23.9056 121.06 24.4952 119.206 24.4952C117.926 24.4952 116.764 24.2088 115.719 23.6361C114.692 23.0633 113.883 22.2462 113.293 21.1849C112.704 20.1236 112.409 18.8938 112.409 17.4956C112.409 16.0974 112.704 14.8676 113.293 13.8063C113.883 12.745 114.692 11.9279 115.719 11.3551C116.764 10.7824 117.926 10.496 119.206 10.496C120.942 10.496 122.298 11.0435 123.275 12.1385V10.6981H127.217ZM119.889 21.2607C120.883 21.2607 121.708 20.9238 122.365 20.25C123.022 19.5593 123.351 18.6411 123.351 17.4956C123.351 16.3501 123.022 15.4404 122.365 14.7665C121.708 14.0758 120.883 13.7305 119.889 13.7305C118.878 13.7305 118.044 14.0758 117.387 14.7665C116.73 15.4404 116.402 16.3501 116.402 17.4956C116.402 18.6411 116.73 19.5593 117.387 20.25C118.044 20.9238 118.878 21.2607 119.889 21.2607Z" fill="#F4F4F4"/>
<path d="M148.277 10.496C149.979 10.496 151.326 11.0014 152.32 12.0121C153.331 13.0061 153.836 14.5054 153.836 16.5101V24.2931H149.894V17.1166C149.894 16.0384 149.667 15.2382 149.212 14.716C148.774 14.1769 148.142 13.9073 147.317 13.9073C146.39 13.9073 145.657 14.2106 145.118 14.817C144.579 15.4067 144.31 16.2911 144.31 17.4703V24.2931H140.368V17.1166C140.368 14.9771 139.509 13.9073 137.79 13.9073C136.881 13.9073 136.156 14.2106 135.617 14.817C135.078 15.4067 134.809 16.2911 134.809 17.4703V24.2931H130.866V10.6981H134.632V12.2648C135.137 11.6921 135.752 11.2541 136.476 10.9508C137.218 10.6476 138.026 10.496 138.902 10.496C139.862 10.496 140.73 10.6897 141.505 11.0772C142.28 11.4478 142.903 11.9953 143.375 12.7197C143.931 12.0121 144.63 11.4646 145.472 11.0772C146.331 10.6897 147.266 10.496 148.277 10.496Z" fill="#F4F4F4"/>
<path d="M165.405 10.496C166.669 10.496 167.814 10.7908 168.842 11.3804C169.887 11.9532 170.704 12.7702 171.293 13.8315C171.883 14.876 172.178 16.0974 172.178 17.4956C172.178 18.8938 171.883 20.1236 171.293 21.1849C170.704 22.2294 169.887 23.0464 168.842 23.6361C167.814 24.2088 166.669 24.4952 165.405 24.4952C163.67 24.4952 162.306 23.9477 161.312 22.8527V33.5041H157.37V10.6981H161.135V12.2648C162.112 11.0856 163.535 10.496 165.405 10.496ZM164.723 21.2607C165.734 21.2607 166.559 20.9238 167.2 20.25C167.857 19.5593 168.185 18.6411 168.185 17.4956C168.185 16.3501 167.857 15.4404 167.2 14.7665C166.559 14.0758 165.734 13.7305 164.723 13.7305C163.712 13.7305 162.878 14.0758 162.221 14.7665C161.581 15.4404 161.261 16.3501 161.261 17.4956C161.261 18.6411 161.581 19.5593 162.221 20.25C162.878 20.9238 163.712 21.2607 164.723 21.2607Z" fill="#F4F4F4"/>
<mask id="path-2-inside-1_721_1730" fill="white">
<path d="M88.6343 5.60425H92.5827V9.55259H88.6343V5.60425Z"/>
</mask>
<path d="M88.6343 5.60425V0.604248H83.6343V5.60425H88.6343ZM92.5827 5.60425H97.5827V0.604248H92.5827V5.60425ZM92.5827 9.55259V14.5526H97.5827V9.55259H92.5827ZM88.6343 9.55259H83.6343V14.5526H88.6343V9.55259ZM88.6343 10.6042H92.5827V0.604248H88.6343V10.6042ZM87.5827 5.60425V9.55259H97.5827V5.60425H87.5827ZM92.5827 4.55259H88.6343V14.5526H92.5827V4.55259ZM93.6343 9.55259V5.60425H83.6343V9.55259H93.6343Z" fill="#CA0088" mask="url(#path-2-inside-1_721_1730)"/>
<path d="M16.7429 15.076C17.9939 14.0253 19.2587 14.1392 20.5374 15.418L22.7557 17.6363C23.4118 18.2923 23.99 18.6148 24.4903 18.6036C25.0018 18.5925 25.5967 18.2478 26.275 17.5696L26.6419 17.2026L28.4099 18.9706L27.5426 19.8379C26.275 21.1055 25.1047 21.7754 24.0317 21.8477C22.9642 21.9144 21.8689 21.3863 20.7459 20.2632L18.8695 18.3868C18.219 17.7363 17.6658 17.3889 17.21 17.3444C16.7596 17.2943 16.2704 17.5334 15.7422 18.0616L13.4989 15.8183C14.0271 15.2901 14.255 14.7045 14.205 14.2541C14.1549 13.7927 13.813 13.3303 13.157 12.6743L11.5641 11.0814C10.4689 9.98618 9.96017 8.91039 10.038 7.85405C10.1158 6.79772 10.7913 5.63297 12.0645 4.35981L12.9318 3.4925L14.6998 5.26047L14.3328 5.62741C13.649 6.31125 13.3043 6.90613 13.2987 7.41206C13.2876 7.91243 13.6101 8.49063 14.2661 9.14667L16.2843 11.1648C16.8958 11.7764 17.2183 12.3768 17.2517 12.9662C17.285 13.5555 17.032 14.1754 16.4928 14.8259L16.7429 15.076Z" fill="#CA0088"/>
<path d="M16.4159 16.9784C17.4666 18.2293 17.3527 19.4941 16.0739 20.7728L13.8556 22.9911C13.1996 23.6472 12.8771 24.2254 12.8883 24.7258C12.8994 25.2372 13.2441 25.8321 13.9223 26.5104L14.2893 26.8773L12.5213 28.6453L11.654 27.778C10.3864 26.5104 9.71647 25.3401 9.64419 24.2671C9.57748 23.1996 10.1056 22.1044 11.2287 20.9813L13.1051 19.1049C13.7556 18.4545 14.103 17.9013 14.1475 17.4454C14.1975 16.9951 13.9585 16.5058 13.4303 15.9776L15.6736 13.7343C16.2018 14.2625 16.6911 14.5015 17.1414 14.4515C17.6028 14.4015 18.1616 14.0484 18.8176 13.3924L20.4105 11.7996C21.5057 10.7043 22.5815 10.1956 23.6378 10.2734C24.6942 10.3513 25.8589 11.0268 27.1321 12.2999L27.9994 13.1672L26.2314 14.9352L25.8645 14.5683C25.1806 13.8844 24.5858 13.5397 24.0798 13.5342C23.5795 13.523 23.0013 13.8455 22.3452 14.5015L20.3271 16.5197C19.7155 17.1313 19.1151 17.4537 18.5257 17.4871C17.9364 17.5204 17.3165 17.2675 16.666 16.7282L16.4159 16.9784Z" fill="#CA0088"/>
<path d="M14.7739 16.9117C13.523 17.9624 12.2582 17.8485 10.9794 16.5697L8.76113 14.3514C8.1051 13.6954 7.52689 13.3729 7.02652 13.3841C6.51503 13.3952 5.92015 13.7399 5.24187 14.4182L4.87494 14.7851L3.10696 13.0171L3.97427 12.1498C5.24187 10.8822 6.41218 10.2123 7.48519 10.14C8.55265 10.0733 9.6479 10.6014 10.771 11.7245L12.6473 13.6009C13.2978 14.2514 13.851 14.5988 14.3069 14.6433C14.7572 14.6934 15.2465 14.4543 15.7746 13.9261L18.018 16.1694C17.4898 16.6976 17.2507 17.1869 17.3008 17.6372C17.3508 18.0986 17.7038 18.6574 18.3599 19.3134L19.9527 20.9063C21.048 22.0015 21.5567 23.0773 21.4788 24.1336C21.401 25.19 20.7255 26.3547 19.4524 27.6279L18.585 28.4952L16.8171 26.7272L17.184 26.3603C17.8679 25.6765 18.2125 25.0816 18.2181 24.5756C18.2292 24.0753 17.9068 23.4971 17.2507 22.841L15.2326 20.8229C14.621 20.2113 14.2986 19.6109 14.2652 19.0215C14.2318 18.4322 14.4848 17.8123 15.0241 17.1618L14.7739 16.9117Z" fill="#CA0088"/>
<path d="M14.5802 15.0093C14.0159 13.5332 13.6434 12.4936 14.9222 11.2149L17.1405 8.99656C17.7965 8.34053 18.119 7.76232 18.1078 7.26195C18.0967 6.75046 17.752 6.15558 17.0737 5.4773L16.7068 5.11037L18.4748 3.3424L19.3421 4.2097C20.6097 5.4773 21.2796 6.64761 21.3519 7.72062C21.4186 8.78808 20.8905 9.88333 19.7674 11.0064L17.891 12.8828C17.2405 13.5332 16.8931 14.0864 16.8486 14.5423C16.7985 14.9927 17.0376 15.4819 17.5658 16.0101L15.3225 18.2534C14.7943 17.7252 14.305 17.4862 13.8547 17.5362C13.3933 17.5862 12.8345 17.9393 12.1785 18.5953L10.5856 20.1882C9.49038 21.2834 8.41458 21.7921 7.35825 21.7143C6.30191 21.6364 5.13717 20.9609 3.864 19.6878L2.9967 18.8205L4.76467 17.0525L5.13161 17.4194C5.81544 18.1033 6.41033 18.448 6.91626 18.4535C7.41663 18.4647 7.99483 18.1422 8.65087 17.4862L10.669 15.468C11.2806 14.8564 11.881 14.534 12.4704 14.5006C13.0597 14.4673 13.6796 14.7202 14.3301 15.2595L14.5802 15.0093Z" fill="#CA0088"/>
<path d="M107.915 33.0865V28.4376H106.031V27.7254H110.604V28.4376H108.719V33.0865H107.915Z" fill="#D8D8D8"/>
<path d="M112.357 33.1631C112.056 33.1631 111.79 33.0993 111.56 32.9716C111.33 32.844 111.152 32.6653 111.024 32.4355C110.896 32.2006 110.833 31.9326 110.833 31.6313V29.1882H111.591V31.5011C111.591 31.8075 111.678 32.05 111.851 32.2287C112.03 32.4074 112.267 32.4968 112.564 32.4968C112.773 32.4968 112.959 32.4534 113.123 32.3666C113.286 32.2747 113.419 32.147 113.521 31.9836V29.1882H114.287V33.0865H113.521V32.6882C113.22 33.0048 112.832 33.1631 112.357 33.1631Z" fill="#D8D8D8"/>
<path d="M115.193 33.0865V29.1882H115.959V29.686C116.082 29.5022 116.232 29.3592 116.411 29.2571C116.595 29.1499 116.802 29.0963 117.032 29.0963C117.19 29.1014 117.32 29.1244 117.422 29.1652V29.8545C117.351 29.8239 117.277 29.8034 117.2 29.7932C117.123 29.7779 117.047 29.7702 116.97 29.7702C116.746 29.7702 116.546 29.8315 116.373 29.9541C116.199 30.0715 116.061 30.2451 115.959 30.4749V33.0865H115.193Z" fill="#D8D8D8"/>
<path d="M118.036 33.0865V27.7254L118.801 27.5798V30.8961L120.693 29.1882H121.589L119.575 31.011L121.696 33.0865H120.686L118.801 31.2561V33.0865H118.036Z" fill="#D8D8D8"/>
<path d="M122.052 33.0865V29.1882H122.818V29.5635C123.109 29.2622 123.474 29.1116 123.913 29.1116C124.179 29.1116 124.413 29.1703 124.618 29.2877C124.827 29.4052 124.993 29.5635 125.115 29.7626C125.279 29.5481 125.47 29.3873 125.69 29.2801C125.909 29.1678 126.157 29.1116 126.433 29.1116C126.724 29.1116 126.977 29.1754 127.191 29.3031C127.411 29.4307 127.582 29.6094 127.704 29.8392C127.832 30.0689 127.896 30.3344 127.896 30.6357V33.0865H127.13V30.7659C127.13 30.4595 127.048 30.2196 126.885 30.046C126.726 29.8673 126.509 29.7779 126.234 29.7779C126.045 29.7779 125.874 29.8213 125.721 29.9081C125.567 29.9949 125.435 30.1277 125.322 30.3064C125.332 30.3574 125.34 30.411 125.345 30.4672C125.35 30.5234 125.353 30.5795 125.353 30.6357V33.0865H124.595V30.7659C124.595 30.4595 124.513 30.2196 124.35 30.046C124.191 29.8673 123.974 29.7779 123.699 29.7779C123.515 29.7779 123.349 29.8188 123.201 29.9004C123.053 29.977 122.925 30.0945 122.818 30.2528V33.0865H122.052Z" fill="#D8D8D8"/>
<path d="M130.645 33.1554C130.262 33.1554 129.914 33.0661 129.603 32.8874C129.297 32.7087 129.052 32.4661 128.868 32.1598C128.689 31.8534 128.6 31.5113 128.6 31.1335C128.6 30.7608 128.686 30.4238 128.86 30.1226C129.034 29.8162 129.269 29.5737 129.565 29.395C129.861 29.2112 130.19 29.1193 130.553 29.1193C130.915 29.1193 131.237 29.2112 131.518 29.395C131.798 29.5737 132.021 29.8188 132.184 30.1302C132.352 30.4366 132.437 30.7838 132.437 31.1718V31.3863H129.366C129.406 31.6007 129.486 31.7922 129.603 31.9607C129.726 32.1292 129.879 32.2619 130.062 32.3589C130.251 32.4559 130.456 32.5044 130.675 32.5044C130.864 32.5044 131.045 32.4764 131.219 32.4202C131.398 32.3589 131.546 32.2721 131.663 32.1598L132.153 32.6423C131.924 32.8159 131.686 32.9461 131.441 33.0329C131.201 33.1146 130.936 33.1554 130.645 33.1554ZM129.373 30.8118H131.679C131.648 30.6076 131.576 30.4289 131.464 30.2757C131.357 30.1174 131.222 29.9949 131.058 29.9081C130.9 29.8162 130.726 29.7702 130.537 29.7702C130.343 29.7702 130.165 29.8136 130.001 29.9004C129.838 29.9872 129.7 30.1098 129.588 30.2681C129.48 30.4212 129.409 30.6025 129.373 30.8118Z" fill="#D8D8D8"/>
<path d="M133.166 33.0865V29.1882H133.932V29.5864C134.233 29.2699 134.624 29.1116 135.104 29.1116C135.405 29.1116 135.668 29.1754 135.893 29.3031C136.122 29.4307 136.301 29.6094 136.429 29.8392C136.562 30.0689 136.628 30.3344 136.628 30.6357V33.0865H135.862V30.7659C135.862 30.4595 135.775 30.2196 135.602 30.046C135.433 29.8673 135.196 29.7779 134.889 29.7779C134.685 29.7779 134.501 29.8213 134.338 29.9081C134.175 29.9949 134.039 30.12 133.932 30.2834V33.0865H133.166Z" fill="#D8D8D8"/>
<path d="M137.512 33.0865V29.1882H138.278V33.0865H137.512ZM137.895 28.5602C137.767 28.5602 137.657 28.5142 137.565 28.4223C137.473 28.3253 137.427 28.213 137.427 28.0853C137.427 27.9526 137.473 27.8428 137.565 27.756C137.657 27.6641 137.767 27.6181 137.895 27.6181C138.027 27.6181 138.14 27.6641 138.232 27.756C138.323 27.8428 138.369 27.9526 138.369 28.0853C138.369 28.213 138.323 28.3253 138.232 28.4223C138.14 28.5142 138.027 28.5602 137.895 28.5602Z" fill="#D8D8D8"/>
<path d="M140.52 33.1631C140.183 33.1631 139.866 33.1146 139.57 33.0176C139.279 32.9155 139.026 32.7725 138.812 32.5887L139.233 32.0832C139.432 32.2415 139.636 32.364 139.846 32.4508C140.06 32.5325 140.277 32.5734 140.497 32.5734C140.773 32.5734 140.997 32.5198 141.171 32.4125C141.344 32.3053 141.431 32.1649 141.431 31.9913C141.431 31.8483 141.38 31.736 141.278 31.6543C141.176 31.5726 141.018 31.5165 140.803 31.4858L140.099 31.3863C139.711 31.3301 139.419 31.2101 139.225 31.0263C139.031 30.8425 138.934 30.5974 138.934 30.291C138.934 30.0562 138.998 29.8519 139.126 29.6783C139.254 29.4996 139.432 29.3618 139.662 29.2648C139.892 29.1627 140.16 29.1116 140.466 29.1116C140.747 29.1116 141.018 29.1524 141.278 29.2341C141.538 29.3158 141.789 29.4435 142.029 29.6171L141.638 30.1226C141.424 29.9796 141.214 29.8749 141.01 29.8085C140.811 29.7422 140.609 29.709 140.405 29.709C140.17 29.709 139.981 29.76 139.838 29.8622C139.695 29.9592 139.624 30.0868 139.624 30.2451C139.624 30.3881 139.672 30.5004 139.769 30.5821C139.871 30.6587 140.037 30.7123 140.267 30.7429L140.972 30.8425C141.36 30.8986 141.653 31.0186 141.852 31.2024C142.052 31.3811 142.151 31.6237 142.151 31.93C142.151 32.1649 142.08 32.3768 141.937 32.5657C141.794 32.7495 141.6 32.895 141.355 33.0023C141.11 33.1095 140.831 33.1631 140.52 33.1631Z" fill="#D8D8D8"/>
<path d="M144.334 33.1554C143.957 33.1554 143.668 33.0686 143.469 32.895C143.27 32.7163 143.17 32.4585 143.17 32.1215V29.8315H142.343V29.1882H143.17V28.1925L143.929 28.0087V29.1882H145.077V29.8315H143.929V31.9453C143.929 32.1445 143.972 32.2874 144.059 32.3742C144.151 32.4559 144.299 32.4968 144.503 32.4968C144.61 32.4968 144.705 32.4891 144.786 32.4738C144.873 32.4585 144.965 32.4355 145.062 32.4049V33.0482C144.96 33.084 144.84 33.1095 144.702 33.1248C144.569 33.1452 144.447 33.1554 144.334 33.1554Z" fill="#D8D8D8"/>
<path d="M146.875 33.1554C146.594 33.1554 146.346 33.1069 146.132 33.0099C145.917 32.9078 145.749 32.7674 145.626 32.5887C145.504 32.41 145.442 32.2032 145.442 31.9683C145.442 31.6007 145.583 31.3122 145.864 31.1029C146.145 30.8884 146.53 30.7812 147.02 30.7812C147.403 30.7812 147.758 30.8552 148.085 31.0033V30.5897C148.085 30.3089 148.003 30.0996 147.84 29.9617C147.681 29.8239 147.447 29.7549 147.135 29.7549C146.956 29.7549 146.77 29.783 146.576 29.8392C146.382 29.8902 146.165 29.9719 145.925 30.0843L145.642 29.5098C145.938 29.372 146.213 29.2724 146.469 29.2112C146.724 29.1448 146.982 29.1116 147.242 29.1116C147.748 29.1116 148.138 29.2316 148.414 29.4716C148.695 29.7115 148.835 30.0536 148.835 30.4978V33.0865H148.085V32.7495C147.911 32.8874 147.725 32.9895 147.526 33.0559C147.327 33.1222 147.11 33.1554 146.875 33.1554ZM146.178 31.953C146.178 32.1419 146.257 32.2951 146.415 32.4125C146.579 32.5249 146.79 32.581 147.051 32.581C147.255 32.581 147.441 32.5529 147.61 32.4968C147.784 32.4355 147.942 32.341 148.085 32.2134V31.5547C147.937 31.4679 147.781 31.4067 147.618 31.3709C147.459 31.3301 147.281 31.3097 147.081 31.3097C146.801 31.3097 146.579 31.3684 146.415 31.4858C146.257 31.5981 146.178 31.7539 146.178 31.953Z" fill="#D8D8D8"/>
<path d="M149.718 33.0865V29.1882H150.484V29.5864C150.785 29.2699 151.176 29.1116 151.655 29.1116C151.957 29.1116 152.22 29.1754 152.444 29.3031C152.674 29.4307 152.853 29.6094 152.98 29.8392C153.113 30.0689 153.18 30.3344 153.18 30.6357V33.0865H152.414V30.7659C152.414 30.4595 152.327 30.2196 152.153 30.046C151.985 29.8673 151.747 29.7779 151.441 29.7779C151.237 29.7779 151.053 29.8213 150.89 29.9081C150.726 29.9949 150.591 30.12 150.484 30.2834V33.0865H149.718Z" fill="#D8D8D8"/>
</svg>
