<svg width="39" height="39" viewBox="0 0 39 39" fill="none" xmlns="http://www.w3.org/2000/svg">
<path d="M23.5891 14.5434H14.59V23.5425H23.5891V14.5434Z" fill="#7C5CFC"/>
<path opacity="0.4" d="M11.2153 30.2918C13.0714 30.2918 14.59 28.7732 14.59 26.9171V23.5425H11.2153C9.35926 23.5425 7.84067 25.0611 7.84067 26.9171C7.84067 28.7732 9.35926 30.2918 11.2153 30.2918Z" fill="#7C5CFC"/>
<path opacity="0.4" d="M11.2153 14.5434H14.59V11.1687C14.59 9.31266 13.0714 7.79407 11.2153 7.79407C9.35926 7.79407 7.84067 9.31266 7.84067 11.1687C7.84067 13.0248 9.35926 14.5434 11.2153 14.5434Z" fill="#7C5CFC"/>
<path opacity="0.4" d="M23.5891 14.5434H26.9637C28.8198 14.5434 30.3384 13.0248 30.3384 11.1687C30.3384 9.31266 28.8198 7.79407 26.9637 7.79407C25.1077 7.79407 23.5891 9.31266 23.5891 11.1687V14.5434Z" fill="#7C5CFC"/>
<path opacity="0.4" d="M26.9637 30.2918C28.8198 30.2918 30.3384 28.7732 30.3384 26.9171C30.3384 25.0611 28.8198 23.5425 26.9637 23.5425H23.5891V26.9171C23.5891 28.7732 25.1077 30.2918 26.9637 30.2918Z" fill="#7C5CFC"/>
<path d="M25.4533 19.0899L19.09 12.7266L12.7267 19.0899L19.09 25.4532L25.4533 19.0899Z" fill="#7C5CFC"/>
<path opacity="0.4" d="M5.56795 21.4762C6.88038 22.7886 9.028 22.7886 10.3404 21.4762L12.7267 19.0899L10.3404 16.7037C9.028 15.3913 6.88038 15.3913 5.56795 16.7037C4.25552 18.0161 4.25552 20.1637 5.56795 21.4762Z" fill="#7C5CFC"/>
<path opacity="0.4" d="M16.7038 10.3404L19.09 12.7266L21.4762 10.3404C22.7887 9.02793 22.7887 6.88031 21.4762 5.56788C20.1638 4.25545 18.0162 4.25545 16.7038 5.56788C15.3913 6.88031 15.3913 9.02793 16.7038 10.3404Z" fill="#7C5CFC"/>
<path opacity="0.4" d="M25.4533 19.0899L27.8396 21.4762C29.152 22.7886 31.2996 22.7886 32.612 21.4762C33.9245 20.1637 33.9245 18.0161 32.612 16.7037C31.2996 15.3913 29.152 15.3913 27.8396 16.7037L25.4533 19.0899Z" fill="#7C5CFC"/>
<path opacity="0.4" d="M16.7038 32.612C18.0162 33.9244 20.1638 33.9244 21.4762 32.612C22.7887 31.2995 22.7887 29.1519 21.4762 27.8395L19.09 25.4532L16.7038 27.8395C15.3913 29.1519 15.3913 31.2995 16.7038 32.612Z" fill="#7C5CFC"/>
</svg>
